<svg version="1" xmlns="http://www.w3.org/2000/svg" width="346.667" height="346.667" viewBox="0 0 260.000000 260.000000"><path d="M126.3 6.1c-5.8 1.1-16.9 5.6-22.8 9.4-7.3 4.6-13.6 12.2-18.9 22.7-5 9.9-6.3 16.3-6.1 29 .1 5.7.6 7.8 3.5 15.3 5.7 14.7 6.2 15.4 14.4 23.3 8.1 7.8 8.2 7.9 18.4 10.6 5.6 1.6 10.2 3.2 10.2 3.6 0 3-13.7 9.3-27.4 12.6-12.6 3.1-15.4 4.2-16.7 6.6-1.7 3.2-.2 5.7 4.1 6.4 2.2.4 4.7 1.5 5.6 2.5 1.9 2.1 4.9 2.5 6 .8 1.7-2.8 17.6 2.5 23.5 7.8 5.2 4.7 11.9 15 17.7 27 4.1 8.7 4.7 10.6 4.6 16.3 0 6-1.9 12-4.2 13.4-.4.2-5-.2-10.2-1.1-5.2-.8-16.5-1.6-25-1.7-11.8-.2-16.6-.7-20-2-9.1-3.5-10-3.3-8 1.8 1.3 3.5 4.6 5.4 16.8 9.7 5.9 2 13.2 4.6 16.3 5.8 7.5 2.7 10.1 2.7 18.4-.2 14.1-4.9 18.4-7.8 24-16.4 4.7-7.3 3.3-19.9-3.4-30.5-5.3-8.3-13.3-23.9-12.7-24.5 1-1 19 1.7 20.2 3 1.8 1.8 2.5 11.2 2.4 31.5 0 27.2-2.9 36.9-13.1 43.6-2.4 1.7-5.3 3.8-6.4 4.7-2.6 2.2-21.8 7.2-27.5 7.1-10.8 0-24.3-6.3-42-19.5C51 212 38.3 197.6 31 183c-1.8-3.6-3.9-7.3-4.8-8.2-1.4-1.7-1.6-1.6-2.8.6-1.4 2.8-.6 7.4 2.6 15.6 3.1 7.9 6.5 12.3 24 31.1 4.5 4.8 26.8 20.4 34 23.7 5 2.4 7.1 2.7 22.8 3.3 19.3.8 22.7.2 30.2-4.9 2.5-1.6 6.7-4.2 9.5-5.6 6.4-3.5 9-5.9 12.5-12.1 5.5-9.8 6.3-15.4 6.2-44.7-.1-25.3 0-25.8 6-24 1.8.6 5.3 1.3 7.8 1.6 4.3.6 15.8 3.7 28.3 7.7 3.1 1 9.3 4.3 13.6 7.3 8.9 6.3 12.2 7 14.7 3.1 2.8-4.3 1.2-6.9-7.9-13-9.7-6.5-19.2-9.9-44.2-15.5-11.7-2.7-17.3-4.4-18.2-5.6-.9-1.2-1.3-5.3-1.3-11.9 0-10.1 0-10.2 3.3-13.8 3.2-3.6 3.2-3.6 8.2-2.6 6.1 1.2 14.6 2.7 20 3.5 2.2.4 5.7 1.5 7.8 2.6 3 1.5 4.9 1.8 8 1.3 6.1-1.1 7.7-2.2 7.7-5.5 0-3.9-3.2-6-9-6-2.6 0-8.2-1.1-12.6-2.4-8.7-2.6-20.3-4.7-24.9-4.4-7.1.3-10.9-3.8-7.4-8.1 2.1-2.6 2.1-.5.4-31.9-.8-14.6-4.3-22.3-13.1-29.1-4.9-3.7-17.3-9.1-21-9.1-3.7 0-11.6 4.4-16.4 9.1-8.8 8.7-12.3 23.7-7.1 30.6 2.8 3.7 4.6 4.3 3.6 1.2-2.5-7.7.9-16.8 9.6-25.9 4.7-4.9 6.1-5.5 12.7-5.2 3.8.2 15 7.2 16.1 10.1.5 1.4 2.2 7.4 3.6 13.3 2.7 10.8 2.7 10.8 1 18.5-2.5 12-5.6 17.5-12.1 21.8-12 8-17.9 9.2-27.7 5.5-9.9-3.7-14.8-9.3-21.3-24.1-3.5-8-3.7-8.9-3.7-19.1 0-6.3.5-11.3 1.1-12.1.6-.7 1.4-2.8 1.7-4.7.3-1.9 2.2-6.7 4.1-10.7 3.4-7.2 9-13 16.4-16.8 4.7-2.4 14.5-4.5 22.6-4.6 7.4-.2 8.5.1 16.4 3.8 12.6 6 16 9 23.6 20.5 5 7.5 7.3 12.3 8.9 17.8 2.4 8.7 4.7 10.2 7.8 5 2.1-3.5 2-4.1-3.4-15.6-2.2-4.6-3.9-8.8-3.9-9.3s-2-3.5-4.4-6.8c-4.8-6.6-14-13.2-26.4-19.1-6.5-3.1-8.6-3.6-15.6-3.7-4.5-.1-10 .2-12.3.6zm27.3 108.3c.3 1.3.6 8.4.7 15.8l.2 13.3-7-.1c-3.8 0-10.1-.8-14-1.7-3.8-.9-8.8-1.8-11-2.1-10.2-1.2-9.4-2.9 6.2-13.2 6.5-4.2 13.8-9.2 16.2-11.1 5.2-3.9 7.8-4.2 8.7-.9z"/></svg>