<svg enable-background="new 0 0 143.4 359.4" viewBox="0 0 143.4 359.4" xmlns="http://www.w3.org/2000/svg"><path d="m28.3 272.4c-2.1 24.2-2.2 50.3-1.5 74.5 0 .9 1.4.9 1.4 0 1.2-27.2 3.6-54.4 6.5-81.4 2.4-22 8-44.7 15.5-65.6 10.2-28.2 20.4-35.6 34.3-56.9 12.9-19.7 21-34.9 26.8-55.9 5.7-20.7 7.3-41.5 7.2-62.8 0-.8-1.2-.8-1.3 0-1.9 24.2-5.2 49.4-14.3 72.1-8.5 21.2-18.5 38.3-32 56.4-12.9 17.3-23.6 35.7-30 56.2-6.4 20.9-10.7 41.4-12.6 63.4z" fill="#ea5a50"/><g stroke-miterlimit="10"><circle cx="109" cy="86" fill="#b2b2b2" r="5.7" stroke="#ea5a31" stroke-width="3"/><circle cx="61.5" cy="171.9" fill="#b2b2b2" r="5.7" stroke="#ea5a31" stroke-width="3"/><circle cx="28.8" cy="298" fill="#b2b2b2" r="5.7" stroke="#ea5a31" stroke-width="3"/><path d="m25.1 353.8c-2.7-107.2 13.5-151.8 53-202.6s36.8-113 36.2-132.4" fill="none" stroke="#fff" stroke-width="22"/></g></svg>