<svg enable-background="new 0 0 143.42 359.35" viewBox="0 0 143.42 359.35" xmlns="http://www.w3.org/2000/svg"><path d="m113.52 272.38c-1.91-21.94-6.18-42.47-12.76-63.52-6.42-20.54-17.09-38.97-30.01-56.23-13.48-18.02-23.44-35.21-31.98-56.36-9.14-22.64-12.43-47.88-14.32-72.07-.06-.81-1.28-.84-1.28 0-.08 21.34 1.52 42.17 7.22 62.85 5.81 21.08 13.87 36.22 26.77 55.95 13.93 21.3 24.14 28.73 34.35 56.91 7.56 20.86 13.15 43.54 15.54 65.57 2.94 27.05 5.32 54.26 6.53 81.42.04.92 1.41.93 1.44 0 .68-24.17.6-50.35-1.5-74.52z" fill="#ea5a50"/><g stroke-miterlimit="10"><g fill="#b2b2b2" stroke="#ea5a31" stroke-width="3"><circle cx="32.87" cy="86.01" r="5.67"/><circle cx="80.39" cy="171.87" r="5.67"/><circle cx="113.01" cy="297.95" r="5.67"/></g><path d="m27.53 18.84c-.54 19.46-3.24 81.62 36.22 132.43s55.73 95.39 53 202.56" fill="none" stroke="#fff" stroke-width="22"/></g></svg>